<svg xmlns="http://www.w3.org/2000/svg" width="206.391" height="45.072">
    <defs>
        <linearGradient id="a" x1="1.228" y1="-.756" x2=".357" y2=".364" gradientUnits="objectBoundingBox">
            <stop offset=".466" stop-color="#fff" stop-opacity="0"/>
            <stop offset=".612" stop-color="#fff" stop-opacity=".345"/>
            <stop offset=".815" stop-color="#fff" stop-opacity=".812"/>
            <stop offset=".905" stop-color="#fff"/>
        </linearGradient>
        <linearGradient id="b" x1=".032" y1=".857" x2=".991" y2=".139" gradientUnits="objectBoundingBox">
            <stop offset="0" stop-color="#fff" stop-opacity="0"/>
            <stop offset=".918" stop-color="#fff"/>
        </linearGradient>
        <linearGradient id="c" x1="1.277" y1=".377" x2=".665" y2=".466" gradientUnits="objectBoundingBox">
            <stop offset=".457" stop-color="#fff" stop-opacity="0"/>
            <stop offset=".532" stop-color="#fff" stop-opacity=".212"/>
            <stop offset=".638" stop-color="#fff" stop-opacity=".49"/>
            <stop offset=".733" stop-color="#fff" stop-opacity=".71"/>
            <stop offset=".815" stop-color="#fff" stop-opacity=".867"/>
            <stop offset=".879" stop-color="#fff" stop-opacity=".965"/>
            <stop offset=".918" stop-color="#fff"/>
        </linearGradient>
        <linearGradient id="d" x1="1.646" y1="-.278" x2=".038" y2=".81" gradientUnits="objectBoundingBox">
            <stop offset=".494" stop-color="#fff" stop-opacity="0"/>
            <stop offset=".867" stop-color="#fff"/>
        </linearGradient>
    </defs>
    <g>
        <path d="M80.613 284.224c-4.373-.253-3.959-6.136-3.552-7.741l3.185.644a8.078 8.078 0 0 0-.1 2.7 1.1 1.1 0 0 0 1.146.922c3.2-.18 6.265-2.11 10.124-4.365l1.148 2.391c-2.706 2.183-8.748 5.966-11.951 5.449z" transform="translate(-68.625 -251.531)" fill="url(#a)"/>
        <path d="M62.02 28.281a29.929 29.929 0 0 1-5.5.856c2.535-3.511 3.035-10.015-2.88-9.924-2.282-.019-5.092 1.5-8.822 4.735 1.481-6.184-3.79-7.43-8.079-4.349l1.18 2.48c.763-.264 3.309-1.917 3.321.369.058 1.948-1.4 4.251-2.855 7.367-4.332 4.641-7.758 8.08-8.377 12.5 0 1.781.85 2.752 2.307 2.752 1.5 0 2.711-1.214 3.52-2.59 2.55-4.209 4.654-7.972 6.191-11.169 2.46-2.5 8.29-8.146 10.521-8.256.769 0 1.133.486 1.133 1.417.1 3.689-5.062 7.612-8.457 5.3l-1.943 3.44c2.335 2.4 12.477.176 19.013-1.387" fill="#fff"/>
        <path d="M61.849 192.621c-7.378 2.882-13.438 10.128-13.517 10.24l-2.769-2.067a37.154 37.154 0 0 1 14.521-12.189z" transform="translate(-45.563 -186.769)" fill="url(#b)"/>
        <path d="M16.286 5.852c3.669-1.433 7.665-1.787 11.413.354 4.925 3.161 2.573 14.548.057 19.649-4.394 8.912-13.159 10.7-16.955 10a6.363 6.363 0 0 1-5.487-5.968c-.292-5.338 4.29-10.308 5.231-11.218l-3.298-2.362c-6.922 6.965-10.4 21.649 3.08 23.956a22.038 22.038 0 0 0 21.645-11.641c3.245-5.909 7.334-20.809-1.669-26.336-5.043-3.237-10.659-2.709-15.782-.45z" fill="#fff"/>
        <path d="M328.765 263.1a6.527 6.527 0 0 1 .931-2.347c1.174-2.266 1.74-3.561 1.74-5.058 0-2.064-1.335-3.359-3.965-3.359-3.332-.167-7.3 2.233-15.378 8.863-.162 0-.162-.121-.162-.283a7.409 7.409 0 0 1 .838-2.772c.334-.728.976-1.48 1-2.137.133-1.517-1.674-2.283-3.213-1.816-5.224 1.4-17.741 12.873-23.615 9.4 6.9-2.2 12.948-4.2 12.952-8.2 0-2.185-1.538-3.885-5.1-3.885-5.775 0-12.147 4.718-12.978 9.951a7.723 7.723 0 0 0 .273 3.546c.607 2.026 2.693 3.358 6.19 3.3 6.258.231 14.128-5.069 19.044-7.8-.6 2.686-.682 6.456 2.339 6.318a5.707 5.707 0 0 0 3.439-1.538c7.73-6.353 11.331-8.9 13.233-8.9 1 .11.131 1.085-.526 2.428-6.509 12.117 6.616 9.806 14.083 6.252l.288-4.515c-2.516 1.283-11.164 4.912-11.413 2.552zm-34.575-7.54c.526 0 .931.2.931.647 0 1.21-3.6 2.624-8.2 3.931a9.7 9.7 0 0 1 7.269-4.582z" transform="translate(-219.799 -233.178)" fill="url(#c)"/>
        <path d="M126.228 35.38c4.166 0 6.637-1.1 10.345-3.016l-.836-4.179c-3.381 1.953-5.653 3.121-8.678 3.121z" fill="#fff"/>
        <path d="M127.061 31.306c-7.226-.044 4.3-13.444 7.693-17.561 1.954 0 8.326.068 10.863.193l.208-4.158c-1.206-.042-6.621-.068-7.661-.11a73.212 73.212 0 0 1 1.871-2.2l-3.243-2.828c-1.539 1.788-2.953 3.41-4.242 4.907-11.758-.1-23.154.518-31.2 1.249l.374 4.158c7.609-.666 15.768-1.207 27.37-1.249-4.027 5.159-6.632 7.9-8.713 13.662a8.832 8.832 0 0 0-.288 4.515c.629 2.527 2.849 3.5 6.132 3.5z" fill="#fff"/>
        <path d="M784.506 284.06c2.637.121 6.68-2.286 10.207-4.558l2.345 3.318c-3.874 2.71-8.658 5.231-12.644 5.375z" transform="translate(-590.666 -253.83)" fill="url(#d)"/>
        <path d="M193.747 34.365a6.519 6.519 0 0 1-6.617-3.959c-2.438 1.146-5.277 3.4-8.093 3.6a2.279 2.279 0 0 1-2.541-2.476c-1.025.632-5.814 3.2-7.716 2.932-3.548.089-4.672-3.351-3.82-6.5a34.438 34.438 0 0 1-5.549 4.25c-3.932 2.176-9.1 2.976-9.236-2.292-4.921 3.589-10.476 5.5-13.6 2.441a4.969 4.969 0 0 1-.836-4.179c1.014-7.6 13.6-13.946 20.345-9.026l-2.627 3.444c-4.236-3.258-13.294 1.636-13.148 6.1.591 3.305 8.387-1.59 11.448-4.931l3.481 2.145a12.722 12.722 0 0 0-.365 2.995.77.77 0 0 0 .7.892 7.226 7.226 0 0 0 3.235-1.523c1.046-.741 2.808-2.218 3.677-2.889a69.243 69.243 0 0 0 5.506-5.418c1.668-3.468 3.952-7.552 6.718-12.118.878-1.493 2.2-2.81 3.82-2.81 1.581 0 2.5 1.054 2.5 2.986-.6 4.36-3.54 7.662-9.089 13.567-1.58 3.381-3.048 5.357-2.985 7.47.024.816.439 1.123.983 1.174a5.924 5.924 0 0 0 2.518-.695c.751-.337 2.422-1.215 4.312-2.267a13.252 13.252 0 0 0 3.242-2.511l3.127-4.147c3.692-4.767 5.51-8.166 8.7-12.827l3.66 1.834c-1.482 2.558-2.5 4.182-4.767 7.7-1.82 2.985-5.128 6.757-7.566 10.466.046.431.525.152.926-.021 4.806-2.683 10.719-6.656 13.6-10.157l3.4 2.549c-2.1 2.549-5.382 5.059-9.874 7.81a2.655 2.655 0 0 0 2.622 2.251z" fill="#fff"/>
    </g>
</svg>
