<?xml version="1.0" encoding="UTF-8"?>
<svg xmlns="http://www.w3.org/2000/svg" width="190" height="38" viewBox="0 0 190 38" fill="none">
  <g id="Logo">
    <g id="Group">
      <path id="Vector" d="M37.5923 0V25.3333C37.5923 28.6933 36.2718 31.9139 33.9223 34.2902C31.5727 36.6652 28.3854 38 25.0614 38H20.0488V12.6667C20.0488 9.30669 21.3693 6.0861 23.7188 3.70979C26.0697 1.33479 29.2557 0 32.5797 0H37.5923Z" fill="#8F72F1"></path>
      <path id="Vector_2" d="M0 20.2666H5.0126C8.33655 20.2666 11.5226 21.6014 13.8734 23.9764C16.223 26.3514 17.5434 29.5733 17.5434 32.9333V38.0002H12.5308C9.20689 38.0002 6.02084 36.6654 3.67001 34.2904C1.32047 31.9141 0 28.6922 0 25.3335V20.2666Z" fill="#8F72F1"></path>
    </g>
    <g id="Group_2">
      <path id="Vector_3" d="M50.4316 23.254V22.7608H53.9065V23.1922C53.9065 25.9959 55.0045 27.1676 57.1082 27.1676C59.2118 27.1676 60.2786 25.9038 60.2786 23.2237V9.36035H63.8758V23.1317C63.8758 27.7239 61.4677 30.1265 57.047 30.1265C52.6264 30.1265 50.4316 27.7541 50.4316 23.254Z" fill="white"></path>
      <path id="Vector_4" d="M66.6797 22.2363C66.6797 17.6441 69.8202 14.5327 74.0574 14.5327C78.2947 14.5327 81.404 17.6139 81.404 22.2363C81.404 26.8588 78.3857 30.1254 74.0574 30.1254C69.7291 30.1254 66.6797 26.8588 66.6797 22.2363ZM74.0574 27.5374C76.4356 27.5374 77.8992 25.6266 77.8992 22.2363C77.8992 18.8461 76.3146 17.0905 74.0574 17.0905C71.8003 17.0905 70.1858 18.9395 70.1858 22.2363C70.1858 25.5332 71.6494 27.5374 74.0574 27.5374Z" fill="white"></path>
      <path id="Vector_5" d="M84.9427 26.9205V17.1825H82.7168V15.1494C85.3695 15.0258 85.6127 14.0093 85.6127 10.7124H88.3265V14.9035H91.5269V17.1838H88.3265V26.2748C88.3265 27.1993 88.601 27.2296 89.3023 27.2296H91.2537V29.7874H87.8088C85.8274 29.7874 84.9427 28.9865 84.9427 26.9218V26.9205Z" fill="white"></path>
      <path id="Vector_6" d="M95.4584 26.9205V17.1825H93.2324V15.1494C95.8851 15.0258 96.1284 14.0093 96.1284 10.7124H98.8422V14.9035H102.043V17.1838H98.8422V26.2748C98.8422 27.1993 99.1167 27.2296 99.8179 27.2296H101.769V29.7874H98.3244C96.343 29.7874 95.4584 28.9865 95.4584 26.9218V26.9205Z" fill="white"></path>
      <path id="Vector_7" d="M104.21 25.9962C104.21 23.253 106.131 21.7433 110.551 20.9727L112.228 20.6952C113.783 20.4178 113.996 19.9562 113.996 19.0317C113.996 17.6141 112.99 16.9986 111.009 16.9986C109.241 16.9986 108.082 17.2143 107.991 19.3407H104.698C104.698 16.0123 107.167 14.5342 111.13 14.5342C115.306 14.5342 117.41 16.1675 117.41 19.3105V27.1377C117.41 27.9702 117.501 29.1406 117.928 29.5719V29.7573H114.453C114.208 29.2642 114.026 28.3699 114.026 27.4468H113.781C113.05 28.9262 111.526 30.1282 108.965 30.1282C105.978 30.1282 104.209 28.4331 104.209 25.9989L104.21 25.9962ZM110.063 27.8452C112.655 27.8452 113.996 25.8424 113.996 23.9934V22.2365C113.508 22.5442 112.777 22.6981 112.197 22.7914L110.611 23.0992C108.446 23.5003 107.563 24.2393 107.563 25.5649C107.563 26.8905 108.386 27.8452 110.063 27.8452Z" fill="white"></path>
      <path id="Vector_8" d="M120.078 22.2363C120.078 17.6757 123.035 14.5327 127.272 14.5327C130.717 14.5327 133.278 16.3514 134.01 19.7101H130.595C130.23 17.9229 129.011 17.0603 127.302 17.0603C125.046 17.0603 123.583 18.9395 123.583 22.2377C123.583 25.5358 124.985 27.5992 127.364 27.5992C129.102 27.5992 130.412 26.7667 130.779 24.6403H134.01C133.4 28.1844 130.808 30.1254 127.272 30.1254C123.065 30.1254 120.078 27.0744 120.078 22.2363Z" fill="white"></path>
      <path id="Vector_9" d="M136.668 9.35938H140.052V29.756H136.668V9.35938Z" fill="white"></path>
      <path id="Vector_10" d="M142.516 22.2363C142.516 17.6441 145.656 14.5327 149.893 14.5327C154.131 14.5327 157.24 17.6139 157.24 22.2363C157.24 26.8588 154.222 30.1254 149.893 30.1254C145.565 30.1254 142.516 26.8588 142.516 22.2363ZM149.893 27.5374C152.272 27.5374 153.735 25.6266 153.735 22.2363C153.735 18.8461 152.151 17.0905 149.893 17.0905C147.636 17.0905 146.022 18.9395 146.022 22.2363C146.022 25.5332 147.485 27.5374 149.893 27.5374Z" fill="white"></path>
      <path id="Vector_11" d="M159.81 25.1034V14.9038H163.194V24.8575C163.194 26.429 163.834 27.631 165.907 27.631C167.492 27.631 169.809 26.4908 169.809 23.1006V14.9038H173.224V29.7574H169.809V27.4153H169.626C168.437 29.2025 166.394 30.127 164.565 30.127C161.303 30.127 159.809 28.1859 159.809 25.1034H159.81Z" fill="white"></path>
      <path id="Vector_12" d="M175.855 22.7296C175.855 17.7061 178.141 14.5328 182.135 14.5328C184.3 14.5328 185.885 15.7348 186.343 17.2142H186.617V9.35938H190.001V29.756H186.739V27.3218H186.465C185.764 28.8315 183.996 30.1255 181.953 30.1255C178.386 30.1255 175.855 27.352 175.855 22.7296ZM182.989 27.7531C185.122 27.7531 186.617 26.3053 186.617 23.47V21.3435C186.617 18.6003 185.519 16.8447 182.929 16.8447C180.339 16.8447 179.362 18.7857 179.362 22.4837C179.362 25.8739 180.642 27.7531 182.989 27.7531Z" fill="white"></path>
    </g>
  </g>
</svg>
