<svg width="208" height="60" viewBox="0 0 208 60" fill="none" xmlns="http://www.w3.org/2000/svg">
<path opacity="0.6" d="M25.2837 31.1906V31.9506C25.2837 35.1583 22.6754 37.7666 19.4677 37.7666H5.81604C2.6083 37.7666 0 35.1583 0 31.9506V18.2989C0 15.0912 2.6083 12.4829 5.81604 12.4829H6.57605V31.1941H25.2873L25.2837 31.1906Z" fill="white"/>
<path d="M25.5366 26.6377H11.125V10.706C11.125 5.26822 15.5495 0.84375 20.9873 0.84375H25.5402C31.813 0.84375 36.9189 5.94973 36.9189 12.2225V15.2554C36.9189 21.5282 31.813 26.6341 25.5402 26.6341L25.5366 26.6377ZM17.6975 20.0617H25.5366C28.1842 20.0617 30.3393 17.9065 30.3393 15.259V12.2261C30.3393 9.57851 28.1842 7.42337 25.5366 7.42337H20.9837C19.1711 7.42337 17.6975 8.897 17.6975 10.7096V20.0652V20.0617Z" fill="white"/>
<path d="M55.4988 13.5071C60.7975 13.5071 64.1836 17.3963 64.1836 22.1598C64.1836 26.9232 60.7975 30.8125 55.4988 30.8125C50.2001 30.8125 46.7783 26.9232 46.7783 22.1598C46.7783 17.3963 50.1645 13.5071 55.4988 13.5071ZM55.4988 28.7001C59.5558 28.7001 61.7038 25.6815 61.7038 22.1598C61.7038 18.638 59.5558 15.6194 55.4988 15.6194C51.4419 15.6194 49.2617 18.638 49.2617 22.1598C49.2617 25.6815 51.4062 28.7001 55.4988 28.7001Z" fill="white"/>
<path d="M67.4053 13.8425H69.8887V18.0671C71.0626 15.284 73.546 13.5071 77.1676 13.5071C81.8312 13.5071 84.9818 17.0288 84.9818 22.1919C84.9818 27.355 81.8312 30.8125 77.1676 30.8125C73.4782 30.8125 71.0305 28.9677 69.8887 26.2524V36.5821H67.4053V13.8425ZM76.3934 28.7001C79.7474 28.7001 82.4984 26.6199 82.4984 22.1919C82.4984 17.7638 79.7474 15.6194 76.3934 15.6194C73.0393 15.6194 69.9886 17.7995 69.9886 22.1919C69.9886 26.5842 73.075 28.7001 76.3934 28.7001Z" fill="white"/>
<path d="M95.5118 13.507C100.275 13.507 103.462 16.4935 103.462 21.5888V22.595H90.0811C90.181 26.0846 91.9579 28.7643 95.6474 28.7643C98.6981 28.7643 100.479 27.1551 101.082 24.6716H103.529C102.826 27.6225 100.814 30.8088 95.7152 30.8088C90.3166 30.8088 87.7012 26.784 87.7012 21.9206C87.7012 16.5542 90.8197 13.5034 95.5154 13.5034L95.5118 13.507ZM101.01 20.6504C100.775 17.3962 98.5946 15.5515 95.4761 15.5515C92.5574 15.5515 90.3773 17.4284 90.1097 20.6504H101.01Z" fill="white"/>
<path d="M106.947 13.8425H109.431V18.4703C110.337 15.3839 112.685 13.5071 116.339 13.5071C119.992 13.5071 122.308 15.9227 122.308 20.2829V30.4771H119.793V20.4828C119.793 17.0288 118.451 15.6194 115.5 15.6194C111.743 15.6194 109.431 18.7736 109.431 23.2338V30.4771H106.947V13.8425Z" fill="white"/>
<path d="M126.501 6.83105H135.189C137.648 6.83105 139.817 7.13434 141.698 7.73736C143.574 8.34037 145.112 9.51428 146.308 11.2591C147.503 13.0039 148.102 15.4623 148.102 18.638C148.102 21.8136 147.503 24.3077 146.308 26.049C145.112 27.7938 143.574 28.9677 141.698 29.5707C139.817 30.1737 137.651 30.477 135.189 30.477H126.501V6.83105ZM135.189 25.7492C136.888 25.7492 138.247 25.6136 139.264 25.346C140.281 25.0784 141.109 24.4362 141.748 23.4157C142.386 22.3988 142.704 20.8038 142.704 18.6344C142.704 16.465 142.379 14.9021 141.733 13.871C141.084 12.8433 140.256 12.1939 139.25 11.9263C138.244 11.6587 136.891 11.5231 135.193 11.5231H131.871V25.7457H135.193L135.189 25.7492Z" fill="white"/>
<path d="M151.606 17.2786C152.356 15.9691 153.394 14.97 154.725 14.2778C156.056 13.5856 157.583 13.2395 159.303 13.2395C162.122 13.2395 164.323 13.9888 165.911 15.4874C167.499 16.986 168.291 19.0555 168.291 21.6924V23.1018H155.613C155.703 24.3078 156.084 25.2534 156.755 25.9349C157.426 26.6164 158.343 26.9589 159.506 26.9589C160.512 26.9589 161.344 26.7484 162.004 26.3202C162.664 25.8956 163.081 25.2926 163.263 24.5076H168.327C168.059 26.3845 167.156 27.908 165.626 29.0677C164.095 30.2309 162.065 30.8125 159.538 30.8125C157.683 30.8125 156.074 30.4378 154.707 29.6885C153.344 28.9392 152.299 27.8938 151.571 26.5522C150.843 25.2105 150.482 23.6691 150.482 21.9243C150.482 20.1795 150.857 18.5881 151.606 17.2786ZM163.328 20.3472C163.238 19.2732 162.842 18.4454 162.136 17.8638C161.433 17.2822 160.52 16.9932 159.403 16.9932C158.286 16.9932 157.419 17.2858 156.737 17.8638C156.056 18.4454 155.67 19.2732 155.581 20.3472H163.328Z" fill="white"/>
<path d="M172.818 29.1712C171.341 28.0758 170.603 26.4665 170.603 24.3399H175.701C175.701 25.3033 176.005 26.0134 176.608 26.4701C177.211 26.9304 178.138 27.1587 179.391 27.1587C180.308 27.1587 180.972 27.041 181.385 26.8055C181.799 26.57 182.006 26.1953 182.006 25.6815C182.006 25.3247 181.885 25.0321 181.639 24.8109C181.393 24.5897 181 24.397 180.465 24.24L175.298 22.8306C174.156 22.5416 173.175 22.0206 172.347 21.2713C171.52 20.522 171.106 19.4873 171.106 18.1706C171.106 16.5828 171.759 15.3661 173.068 14.5133C174.378 13.6641 176.205 13.2395 178.552 13.2395C181.146 13.2395 183.169 13.7604 184.622 14.7988C186.074 15.8371 186.802 17.3428 186.802 19.3089H181.703C181.703 17.6782 180.665 16.8611 178.584 16.8611C177.846 16.8611 177.264 16.9825 176.84 17.2287C176.415 17.4749 176.201 17.7996 176.201 18.2028C176.201 18.895 176.815 19.3981 178.046 19.7121L182.003 20.6862C183.544 21.068 184.782 21.6531 185.71 22.4453C186.638 23.2409 187.102 24.3506 187.102 25.7814C187.102 27.4156 186.449 28.6609 185.139 29.5208C183.83 30.3808 181.892 30.8125 179.319 30.8125C176.458 30.8125 174.288 30.2666 172.811 29.1676L172.818 29.1712Z" fill="white"/>
<path d="M189.924 5.82495H195.023V20.1117L201.763 13.5713H208L199.583 21.7887L207.968 30.4771H201.763L195.023 23.3658V30.4771H189.924V5.82495Z" fill="white"/>
<path d="M48.3271 44.2715H50.518V49.9127C51.0139 48.8851 52.0273 47.9716 53.8684 47.9716C56.4232 47.9716 57.7327 49.8627 57.7327 52.2855C57.7327 54.7082 56.4232 56.6315 53.8684 56.6315C52.0951 56.6315 51.0639 55.768 50.518 54.6583V56.4673H48.3271V44.2751V44.2715ZM53.0549 54.7047C54.5642 54.7047 55.5419 53.9589 55.5419 52.2819C55.5419 50.6049 54.5642 49.8948 53.0549 49.8948C51.5456 49.8948 50.5322 50.6584 50.5322 52.2819C50.5322 53.9054 51.5599 54.7047 53.0549 54.7047Z" fill="white"/>
<path d="M68.0371 58.6046C68.0371 59.4324 67.5875 59.8499 66.7276 59.8499H59.9767V57.9267H65.8499V54.3585C65.4181 55.718 64.2906 56.6314 62.4816 56.6314C60.4227 56.6314 59.1953 55.272 59.1953 52.8314V48.1357H61.4183V52.5138C61.4183 54.1052 61.9321 54.7047 63.2594 54.7047C64.8508 54.7047 65.8463 53.6913 65.8463 51.3863V48.1357H68.0371V58.6046Z" fill="white"/>
<path d="M74.5771 52.4174L83.4368 46.794L82.1915 46.7762H74.5771V44.7673H84.1147V48.8314L75.2551 54.4548H84.1147V56.4636H74.5771V52.4174Z" fill="white"/>
<path d="M89.5248 47.9717C92.2116 47.9717 93.8386 49.4988 93.8386 52.1036V52.7494H87.4695C87.5694 54.0767 88.283 54.9402 89.6247 54.9402C90.7522 54.9402 91.4658 54.4086 91.6799 53.5308H93.8529C93.5888 55.2399 92.2116 56.6315 89.6389 56.6315C86.8701 56.6315 85.293 54.7725 85.293 52.2356C85.293 49.5488 87.0342 47.9717 89.5248 47.9717ZM91.6977 51.4863C91.5978 50.2767 90.7843 49.613 89.5747 49.613C88.3651 49.613 87.5659 50.2945 87.4838 51.4863H91.6977Z" fill="white"/>
<path d="M95.5654 48.1357H97.7563V50.2409C98.188 48.8815 99.3155 47.968 101.125 47.968C103.18 47.968 104.411 49.3275 104.411 51.7681V56.4637H102.188V52.0856C102.188 50.4943 101.674 49.8948 100.347 49.8948C98.7553 49.8948 97.7598 50.9081 97.7598 53.2132V56.4637H95.569V48.1357H95.5654Z" fill="white"/>
<path d="M106.498 44.7673H110.644C113.695 44.7673 116.881 45.5809 116.881 50.6084C116.881 55.6358 113.695 56.4636 110.644 56.4636H106.498V44.7673ZM110.644 54.4584C112.685 54.4584 114.576 54.2585 114.576 50.6084C114.576 46.9582 112.667 46.7762 110.644 46.7762H108.803V54.4584H110.644Z" fill="white"/>
<path d="M118.276 54.5407H120.599V50.0627H118.708V48.1394H121.413C122.191 48.1394 122.622 48.5212 122.622 49.3348V54.5442H124.963V56.4674H118.276V54.5442V54.5407ZM121.413 44.5356C122.258 44.5356 122.89 44.9995 122.89 45.813C122.89 46.6266 122.258 47.0904 121.413 47.0904C120.567 47.0904 119.985 46.6408 119.985 45.813C119.985 44.9852 120.567 44.5356 121.413 44.5356Z" fill="white"/>
<path d="M131.35 56.6813C127.486 56.6813 125.677 54.9721 125.677 51.9856H128.05C128.05 53.9088 129.027 54.7402 131.4 54.7402C133.127 54.7402 133.887 54.2764 133.887 53.2808C133.887 52.635 133.423 52.1355 132.445 51.8857L128.827 50.9402C126.886 50.4263 126.191 49.2988 126.191 47.8537C126.191 45.7129 127.782 44.5532 130.669 44.5532C134.101 44.5532 135.846 46.1803 135.846 48.7172H133.473C133.473 47.1758 132.578 46.4622 130.704 46.4622C129.309 46.4622 128.563 46.8761 128.563 47.8073C128.563 48.3711 128.895 48.8207 129.891 49.0669L133.423 49.9625C135.332 50.4442 136.242 51.5396 136.242 53.1809C136.242 55.3218 134.8 56.6813 131.347 56.6813H131.35Z" fill="white"/>
</svg>
