<svg width="126" height="48" viewBox="0 0 126 48" fill="none" xmlns="http://www.w3.org/2000/svg">
<path d="M7.875 32.0288L12.7139 33.2286L17.0547 15.9378L12.2158 14.738L7.875 32.0288ZM25.327 14.738L20.9862 32.0288L25.8251 33.2286L30.1659 15.9378L25.327 14.738Z" fill="#315994"/>
<path d="M9.21094 26.6828L16.5226 16.9612L10.0471 23.4011L9.21094 26.6828ZM23.1405 23.4188L22.3222 26.7005L29.6339 16.9788L23.1405 23.4188Z" fill="#092F4B"/>
<mask id="mask0_1399_5478" style="mask-type:alpha" maskUnits="userSpaceOnUse" x="4" y="12" width="40" height="24">
<path d="M17.1249 15.3559C17.1249 13.9973 16.0041 12.8857 14.6343 12.8857C13.9583 12.8857 13.3356 13.1504 12.8909 13.6091L12.8731 13.6268L5.41906 21.0018C4.95652 21.4606 4.67188 22.0781 4.67188 22.7662C4.67188 24.1247 5.79265 25.2363 7.16248 25.2363C7.8385 25.2363 8.46115 24.954 8.92369 24.5129L16.4133 17.1026C16.858 16.6438 17.1249 16.0263 17.1249 15.3559Z" fill="black"/>
<path d="M30.2361 15.3735C30.2361 14.0149 29.1154 12.9034 27.7455 12.9034C27.0517 12.9034 26.4291 13.1857 25.9843 13.6444L8.55009 30.9175C8.08755 31.3586 7.8207 31.9938 7.8207 32.6643C7.8207 34.0228 8.94147 35.1344 10.3113 35.1344C11.0051 35.1344 11.6278 34.8521 12.0725 34.411L29.3644 17.2614C29.8448 16.7673 30.2361 16.1322 30.2361 15.3735Z" fill="black"/>
<path d="M43.3296 12.8857V16.4674L25.1838 34.3581C24.739 34.8168 24.0986 35.1167 23.387 35.1167C22.0171 35.1167 20.8964 34.0052 20.8964 32.6466C20.8964 31.9232 21.1988 31.2881 21.6969 30.847L39.8072 12.8857H43.3296Z" fill="black"/>
</mask>
<g mask="url(#mask0_1399_5478)">
<path d="M17.125 35.1166L39.9932 12.5327H47.5459L24.8876 35.1166H17.125Z" fill="url(#paint0_linear_1399_5478)"/>
<path d="M3.78125 35.1166L26.7831 12.5327H34.3801L11.5892 35.1166H3.78125Z" fill="url(#paint1_linear_1399_5478)"/>
<path d="M2.35938 23.7526L13.6475 12.5327H20.861L7.44342 25.9419L2.35938 23.7526Z" fill="url(#paint2_linear_1399_5478)"/>
</g>
<path d="M55.984 23.64H50.736V29H49.776V18.04H50.736V22.824H55.984V18.04H56.944V29H55.984V23.64ZM65.1508 18.84H60.6547V22.92H64.5428V23.72H60.6547V28.2H65.3748V29H59.6947V18.04H65.2628L65.1508 18.84ZM70.2343 24.088H68.0422V29H67.0822V18.04H69.7382C72.3409 18.04 73.6423 19.032 73.6423 21.016C73.6423 21.8053 73.4343 22.4347 73.0182 22.904C72.6022 23.3733 71.9942 23.7093 71.1943 23.912L74.2023 29H73.0662L70.2343 24.088ZM69.8663 23.304C71.7009 23.304 72.6182 22.5413 72.6182 21.016C72.6182 20.2693 72.3889 19.72 71.9303 19.368C71.4716 19.0053 70.7302 18.824 69.7062 18.824H68.0422V23.304H69.8663ZM81.1758 18.84H76.6798V22.92H80.5678V23.72H76.6798V28.2H81.3998V29H75.7198V18.04H81.2878L81.1758 18.84ZM97.6033 17.912L95.7473 29H92.3393L90.9633 20.536L89.5073 29H86.1793L84.3553 17.912H86.9793L88.0833 27.016L89.6193 17.912H92.3713L93.8113 27.016L95.1073 17.912H97.6033ZM105.938 24.584C105.938 24.856 105.922 25.24 105.89 25.496H100.626C100.802 27.016 101.522 27.432 102.562 27.432C103.25 27.432 103.858 27.192 104.594 26.68L105.634 28.088C104.786 28.76 103.698 29.272 102.322 29.272C99.4899 29.272 98.0499 27.448 98.0499 24.792C98.0499 22.248 99.4419 20.232 102.018 20.232C104.45 20.232 105.938 21.832 105.938 24.584ZM103.458 23.976V23.864C103.442 22.712 103.09 21.912 102.082 21.912C101.234 21.912 100.738 22.456 100.626 23.976H103.458ZM112.173 17.64C113.789 17.64 114.957 18.2 115.869 19L114.541 20.392C113.789 19.816 113.181 19.544 112.285 19.544C110.733 19.544 109.581 20.696 109.581 23.448C109.581 26.36 110.349 27.352 111.885 27.352C112.429 27.352 112.925 27.24 113.389 26.984V24.472H111.949L111.693 22.616H115.933V28.104C114.781 28.84 113.341 29.272 111.949 29.272C108.557 29.272 106.861 27.24 106.861 23.448C106.861 19.688 109.197 17.64 112.173 17.64ZM121.254 20.232C123.846 20.232 125.414 21.896 125.414 24.76C125.414 27.48 123.846 29.272 121.254 29.272C118.678 29.272 117.094 27.608 117.094 24.744C117.094 22.024 118.662 20.232 121.254 20.232ZM121.254 22.088C120.23 22.088 119.718 22.904 119.718 24.744C119.718 26.632 120.23 27.416 121.254 27.416C122.278 27.416 122.79 26.6 122.79 24.76C122.79 22.872 122.278 22.088 121.254 22.088Z" fill="black"/>
<defs>
<linearGradient id="paint0_linear_1399_5478" x1="17.699" y1="38.547" x2="24.2252" y2="5.14303" gradientUnits="userSpaceOnUse">
<stop offset="0.16" stop-color="#48DAD0"/>
<stop offset="0.2" stop-color="#48D4D3"/>
<stop offset="0.42" stop-color="#49B2E6"/>
<stop offset="0.64" stop-color="#4A9AF4"/>
<stop offset="0.84" stop-color="#4A8BFC"/>
<stop offset="1" stop-color="#4A86FF"/>
</linearGradient>
<linearGradient id="paint1_linear_1399_5478" x1="4.50292" y1="37.9753" x2="10.9953" y2="5.41335" gradientUnits="userSpaceOnUse">
<stop offset="0.16" stop-color="#48DAD0"/>
<stop offset="0.2" stop-color="#48D4D3"/>
<stop offset="0.42" stop-color="#49B2E6"/>
<stop offset="0.64" stop-color="#4A9AF4"/>
<stop offset="0.84" stop-color="#4A8BFC"/>
<stop offset="1" stop-color="#4A86FF"/>
</linearGradient>
<linearGradient id="paint2_linear_1399_5478" x1="1.67413" y1="27.447" x2="5.90151" y2="6.96339" gradientUnits="userSpaceOnUse">
<stop offset="0.16" stop-color="#48DAD0"/>
<stop offset="0.2" stop-color="#48D4D3"/>
<stop offset="0.42" stop-color="#49B2E6"/>
<stop offset="0.64" stop-color="#4A9AF4"/>
<stop offset="0.84" stop-color="#4A8BFC"/>
<stop offset="1" stop-color="#4A86FF"/>
</linearGradient>
</defs>
</svg>